<svg id="visual" viewBox="0 0 900 600" width="900" height="600" xmlns="http://www.w3.org/2000/svg" xmlns:xlink="http://www.w3.org/1999/xlink" version="1.1"><rect x="0" y="0" width="900" height="600" fill="#ffffff"></rect><path d="M0 510L13.7 508.8C27.3 507.7 54.7 505.3 82 506.7C109.3 508 136.7 513 163.8 518.7C191 524.3 218 530.7 245.2 534C272.3 537.3 299.7 537.7 327 531.3C354.3 525 381.7 512 409 510.7C436.3 509.3 463.7 519.7 491 526.7C518.3 533.7 545.7 537.3 573 537.8C600.3 538.3 627.7 535.7 654.8 528C682 520.3 709 507.7 736.2 508.3C763.3 509 790.7 523 818 524.7C845.3 526.3 872.7 515.7 886.3 510.3L900 505L900 601L886.3 601C872.7 601 845.3 601 818 601C790.7 601 763.3 601 736.2 601C709 601 682 601 654.8 601C627.7 601 600.3 601 573 601C545.7 601 518.3 601 491 601C463.7 601 436.3 601 409 601C381.7 601 354.3 601 327 601C299.7 601 272.3 601 245.2 601C218 601 191 601 163.8 601C136.7 601 109.3 601 82 601C54.7 601 27.3 601 13.7 601L0 601Z" fill="#faf6fe"></path><path d="M0 556L13.7 554.5C27.3 553 54.7 550 82 549C109.3 548 136.7 549 163.8 549.5C191 550 218 550 245.2 548.3C272.3 546.7 299.7 543.3 327 540C354.3 536.7 381.7 533.3 409 532.8C436.3 532.3 463.7 534.7 491 539.5C518.3 544.3 545.7 551.7 573 552C600.3 552.3 627.7 545.7 654.8 543.5C682 541.3 709 543.7 736.2 542.7C763.3 541.7 790.7 537.3 818 534C845.3 530.7 872.7 528.3 886.3 527.2L900 526L900 601L886.3 601C872.7 601 845.3 601 818 601C790.7 601 763.3 601 736.2 601C709 601 682 601 654.8 601C627.7 601 600.3 601 573 601C545.7 601 518.3 601 491 601C463.7 601 436.3 601 409 601C381.7 601 354.3 601 327 601C299.7 601 272.3 601 245.2 601C218 601 191 601 163.8 601C136.7 601 109.3 601 82 601C54.7 601 27.3 601 13.7 601L0 601Z" fill="#c497ec"></path><path d="M0 553L13.7 557C27.3 561 54.7 569 82 572.5C109.3 576 136.7 575 163.8 574C191 573 218 572 245.2 568.5C272.3 565 299.7 559 327 559.8C354.3 560.7 381.7 568.3 409 569.7C436.3 571 463.7 566 491 564.3C518.3 562.7 545.7 564.3 573 565.8C600.3 567.3 627.7 568.7 654.8 571.3C682 574 709 578 736.2 580.5C763.3 583 790.7 584 818 580.2C845.3 576.3 872.7 567.7 886.3 563.3L900 559L900 601L886.3 601C872.7 601 845.3 601 818 601C790.7 601 763.3 601 736.2 601C709 601 682 601 654.8 601C627.7 601 600.3 601 573 601C545.7 601 518.3 601 491 601C463.7 601 436.3 601 409 601C381.7 601 354.3 601 327 601C299.7 601 272.3 601 245.2 601C218 601 191 601 163.8 601C136.7 601 109.3 601 82 601C54.7 601 27.3 601 13.7 601L0 601Z" fill="#8d2ed1"></path></svg>